<svg width="64" height="32" viewBox="0 0 64 32" fill="none" xmlns="http://www.w3.org/2000/svg">
<g clip-path="url(#clip0_74_121)">
<path d="M29.2013 0.571594C24.9477 0.772236 20.9309 1.36613 17.3274 2.32118C11.9342 3.75376 7.39165 5.96884 4.54656 8.56112C4.29777 8.78985 4.04897 9.01055 3.99681 9.05469C3.88044 9.14297 3.08991 10.0258 2.7729 10.4231C1.71351 11.7393 1.02732 13.1518 0.706296 14.6686C0.565847 15.3388 0.525719 16.651 0.62604 17.3452C1.03535 20.1381 2.72876 22.6341 5.82665 24.9976C7.12279 25.9848 9.065 27.1043 10.9631 27.9591C12.8491 28.8098 15.0762 29.5883 17.3234 30.1822C25.2246 32.2729 34.8112 32.5658 43.186 30.9647C45.3248 30.5594 46.8256 30.1862 48.7357 29.5843C49.3015 29.4077 49.8071 29.2432 49.8553 29.2231C49.9075 29.2031 50.2205 29.0867 50.5495 28.9703C52.4797 28.2681 54.2654 27.4454 55.8665 26.5225C58.543 24.9735 60.6257 23.1196 61.9339 21.1172C64.0045 17.9551 63.9563 14.3556 61.8015 11.1855C61.1915 10.2866 60.2766 9.26737 59.3978 8.50092C59.165 8.30028 58.9243 8.09162 58.8641 8.03544C58.7517 7.93512 58.519 7.75855 58.0134 7.37733C55.8906 5.78424 52.4436 4.09485 49.2453 3.07961C46.9942 2.36131 45.7823 2.04831 43.5993 1.61493C41.1354 1.12938 38.8521 0.832428 36.1636 0.647839C35.1764 0.57962 34.4541 0.559557 32.4116 0.551531C31.0231 0.543505 29.5785 0.555544 29.2013 0.571594ZM33.9164 3.05954C38.9444 3.23209 43.3626 3.8902 47.4596 5.06996C48.816 5.46322 50.6579 6.10527 51.5928 6.51056C53.0575 7.1486 53.9564 7.60606 55.1241 8.30429C57.0583 9.464 58.5952 10.8243 59.6225 12.289C59.9917 12.8187 60.4371 13.7176 60.6377 14.3356C60.8504 14.9776 60.8986 15.3508 60.9026 16.2416C60.9026 16.98 60.8905 17.1365 60.8103 17.4977C60.4531 19.0948 59.6787 20.3909 58.2461 21.8074C57.5679 22.4776 57.1345 22.8387 56.3079 23.4246C52.8248 25.8925 47.3914 27.8387 41.4805 28.7416C40.1403 28.9462 39.8915 28.9783 38.9926 29.0827C35.2888 29.496 31.4565 29.5762 27.7166 29.3234C17.219 28.6051 8.48314 25.3387 4.79937 20.7601C4.24961 20.0779 3.64769 18.9944 3.40692 18.2641C2.69665 16.1052 3.13004 13.9584 4.70306 11.8677C5.28091 11.1012 6.42055 10.0097 7.39165 9.29546C9.01684 8.10365 11.2078 6.94796 13.4711 6.09724C16.4205 4.98569 19.6428 4.17511 23.1219 3.66548C26.5609 3.15986 30.4694 2.94317 33.9164 3.05954Z" fill="white"/>
<path d="M16.3003 16.2616V21.5184H17.5643H18.8284V18.581V15.6397L19.1815 16.1814C19.5627 16.7713 19.655 16.9117 20.2529 17.8427L20.6542 18.4687H21.5491H22.4399L22.9937 17.626C23.2946 17.1605 23.712 16.5265 23.9166 16.2135L24.2858 15.6477V18.5851V21.5184H25.5498H26.8139V16.2616V11.0048H25.5579H24.3019L22.9415 13.0915C22.1911 14.2392 21.5651 15.1782 21.5531 15.1782C21.537 15.1782 21.3966 14.9735 21.2361 14.7247C20.7906 14.0345 20.4576 13.5209 19.9319 12.7103C19.667 12.305 19.3099 11.7552 19.1374 11.4864L18.8284 11.0048H17.5643H16.3003V16.2616Z" fill="white"/>
<path d="M28.0176 12.2488V13.4928H29.6227H31.2278V17.5056V21.5184H32.4919H33.7559V17.5056V13.4928H35.341H36.926V12.2488V11.0048H32.4718H28.0176V12.2488Z" fill="white"/>
<path d="M38.1299 16.2616V21.5184H39.3939H40.658L40.666 18.4366L40.678 15.3547L41.7414 16.8355C42.3273 17.6501 42.9132 18.4647 43.0456 18.6493C43.178 18.8339 43.4589 19.2271 43.6716 19.52C43.8803 19.813 44.2053 20.2624 44.3899 20.5152C44.5745 20.768 44.8072 21.0931 44.9115 21.2375L45.0961 21.4984L46.3682 21.5104L47.6403 21.5184V16.2616V11.0048H46.3762H45.1122L45.1042 14.0947L45.0921 17.1846L44.9035 16.9117C44.6828 16.6027 43.6636 15.1782 42.9653 14.2151C42.4637 13.5209 41.9782 12.8467 41.1475 11.691L40.6499 11.0048H39.3899H38.1299V16.2616Z" fill="white"/>
</g>
<defs>
<clipPath id="clip0_74_121">
<rect width="62.8809" height="31.4605" fill="white" transform="translate(0.569824 0.531372)"/>
</clipPath>
</defs>
</svg>
