<svg width="41" height="41" viewBox="0 0 41 41" fill="none" xmlns="http://www.w3.org/2000/svg">
<path fill-rule="evenodd" clip-rule="evenodd" d="M36.4725 8.64328C30.904 6.17812 25.4637 5.39467 20.7124 5.43182C15.9594 5.39467 10.5174 6.17812 4.95055 8.64328C4.28698 7.42083 4.01514 6.68128 4.01514 6.68128C10.1021 4.23469 15.8023 3.39721 20.7124 3.37695C25.6225 3.39721 31.3227 4.23469 37.4096 6.68128C37.4096 6.68128 37.2172 7.28238 36.4725 8.64328ZM25.3878 10.4635L20.7124 37.1463L16.0016 10.4584C11.5795 10.4618 10.1764 10.9582 9.97374 12.9826C9.97374 12.9826 6.98515 11.8514 5.47904 9.55506C11.3583 6.78597 17.2645 6.66271 17.2645 6.66271L20.7124 10.921L24.1552 6.66271C24.1552 6.66271 30.0614 6.78766 35.9407 9.55506C34.4346 11.8514 31.4477 12.9826 31.4477 12.9826C31.2451 10.9582 29.8402 10.4635 25.3861 10.4635" fill="white"/>
</svg>
