<svg width="42" height="41" viewBox="0 0 42 41" fill="none" xmlns="http://www.w3.org/2000/svg">
<path d="M24.5667 17.8302C24.0433 19.9239 20.7846 18.8602 19.7715 18.5731L20.7002 14.8923C21.747 15.1962 25.1071 15.6352 24.5667 17.8302ZM19.3156 20.4642L18.3025 24.5334C19.552 24.8542 23.4186 26.0868 23.9927 23.7905C24.6005 21.3929 20.5651 20.7681 19.3156 20.4642ZM37.1627 24.3477C34.9002 33.3979 25.7487 38.9023 16.6985 36.6397C7.6483 34.3772 2.14896 25.2257 4.40644 16.1755C4.94277 14.0246 5.89758 12.0003 7.21634 10.2184C8.5351 8.43653 10.192 6.93188 12.0923 5.79042C13.9927 4.64896 16.0993 3.89304 18.2918 3.56584C20.4843 3.23864 22.7199 3.34657 24.8707 3.88347C33.904 6.14602 39.4084 15.2975 37.1627 24.3477ZM24.5161 13.5922L25.2759 10.5529L23.4186 10.1308L22.6757 13.0518C22.186 12.9337 21.6964 12.8155 21.1898 12.7142L21.9327 9.72557L20.0923 9.28657L19.3325 12.3089C18.9273 12.2076 18.522 12.1232 18.1506 12.0219L15.601 11.3803L15.0944 13.3558C15.0944 13.3558 16.479 13.6766 16.4452 13.6935C17.205 13.8792 17.3401 14.352 17.3063 14.7741L15.2295 23.0982C15.1451 23.3346 14.8749 23.6385 14.3853 23.5541C14.4022 23.571 13.0345 23.2164 13.0345 23.2164L12.1227 25.327L14.5204 25.9349C14.9763 26.053 15.4153 26.1712 15.8543 26.2726L15.0776 29.3456L16.9349 29.8183L17.6947 26.7622C18.2012 26.8973 18.6909 27.0155 19.1637 27.1506L18.4038 30.1729L20.2612 30.6457L21.0378 27.5727C24.1615 28.1636 26.5591 27.9272 27.5384 25.0737C28.3827 22.7943 27.5384 21.4435 25.85 20.5824C27.0657 20.2616 27.9774 19.5018 28.2307 17.8471C28.5684 15.6014 26.8462 14.4026 24.5161 13.5922Z" fill="white"/>
</svg>
