<svg width="41" height="41" viewBox="0 0 41 41" fill="none" xmlns="http://www.w3.org/2000/svg">
<path d="M28.788 34.2421C27.1333 35.8462 25.3266 35.5929 23.5875 34.8331C21.7471 34.0564 20.0586 34.0226 18.1169 34.8331C15.6855 35.88 14.4022 35.576 12.9502 34.2421C4.71043 25.7492 5.92613 12.8155 15.2802 12.3427C17.5597 12.4609 19.1468 13.5922 20.4807 13.6935C22.4731 13.2883 24.3811 12.1232 26.5086 12.2752C29.0581 12.4778 30.983 13.4909 32.2493 15.3144C26.9813 18.4719 28.2308 25.4115 33.0598 27.3532C32.0974 29.8859 30.8479 32.4017 28.7711 34.259L28.788 34.2421ZM20.3119 12.2414C20.0586 8.47613 23.1147 5.36935 26.6267 5.06543C27.1164 9.42168 22.6757 12.6635 20.3119 12.2414Z" fill="white"/>
</svg>
