<svg width="42" height="41" viewBox="0 0 42 41" fill="none" xmlns="http://www.w3.org/2000/svg">
<path d="M24.8325 26.5063C23.3604 26.6092 23.5029 25.8217 24.3774 24.678C26.3719 22.0187 30.0641 18.4056 30.2303 15.7661C30.4599 12.339 27.013 11.2784 23.4633 11.2784C20.9939 11.3418 18.4375 12.0264 16.6962 12.6477C10.6969 14.7649 6.93741 18.089 4.55113 21.8287C2.08174 25.5249 2.84947 29.0786 8.18397 29.1815C12.2126 29.0153 14.9312 27.8953 17.6697 26.4826C17.6895 26.4826 10.0518 28.6631 7.22629 27.0643C6.91366 26.8981 6.60499 26.6686 6.52189 26.0275C6.52189 24.7176 8.6826 23.3483 9.94895 22.913V20.6692C12.5014 21.5636 15.513 21.3143 18.0892 19.4029C18.1723 19.6324 18.2554 19.9213 18.2356 20.2339H18.6709C18.7738 19.3396 18.1723 18.4689 17.1751 18.4056C17.4639 18.6351 17.6737 18.8211 17.7766 18.9874L17.737 19.0269L17.7172 19.0467C14.397 21.3736 11.1757 20.2933 10.8671 20.23L12.7151 18.4215L12.1967 17.1116C15.8731 15.8254 18.9044 14.8875 23.9461 13.9971L22.8182 13.087L23.4 12.7347C26.3878 13.5658 28.4021 14.1871 28.2992 15.7661C28.2596 16.0352 28.1527 16.3478 27.9865 16.6802C27.0961 18.4452 24.4803 21.2905 23.4198 22.5173C22.7351 23.3286 22.0505 24.0765 21.5717 24.8244C21.0335 25.5922 20.7604 26.3005 20.7406 26.9416C20.8435 32.1574 36.2297 24.492 39.261 22.4738C34.8407 24.3654 30.0444 26.1739 24.8325 26.5063ZM28.1963 14.5195C28.3071 14.7253 28.3585 14.9786 28.3585 15.2754C28.3546 15.0063 28.3031 14.749 28.1963 14.5195Z" fill="white"/>
</svg>
