<svg width="56" height="56" viewBox="0 0 56 56" fill="none" xmlns="http://www.w3.org/2000/svg">
<rect width="56" height="56" rx="28" fill="url(#paint0_linear_193_4767)"/>
<path d="M30 14.2V21.4C30 22.0365 30.2529 22.6469 30.7029 23.097C31.153 23.5471 31.7635 23.8 32.4 23.8H39.6V37.4C39.6 38.0365 39.3472 38.6469 38.8971 39.097C38.447 39.5471 37.8365 39.8 37.2 39.8H28.9232C29.2617 39.4998 29.5327 39.1312 29.7183 38.7186C29.9039 38.306 29.9999 37.8588 30 37.4064V31C30 30.4056 29.8344 29.8229 29.5219 29.3173C29.2093 28.8118 28.7621 28.4032 28.2304 28.1376L23.4304 25.7376C22.9862 25.5156 22.4965 25.4001 22 25.4001C21.5035 25.4001 21.0138 25.5156 20.5696 25.7376L20.4 25.8224V16.6C20.4 15.9634 20.6529 15.353 21.1029 14.9029C21.553 14.4528 22.1635 14.2 22.8 14.2H30ZM31.6 14.6V21.4C31.6 21.6121 31.6843 21.8156 31.8343 21.9656C31.9844 22.1157 32.1878 22.2 32.4 22.2H39.2L31.6 14.6ZM22.7152 27.1696L27.5152 29.5696C27.7809 29.7023 28.0045 29.9065 28.1607 30.1591C28.317 30.4117 28.3998 30.7029 28.4 31V37.4064C28.3998 37.7034 28.317 37.9946 28.1607 38.2472C28.0045 38.4998 27.7809 38.704 27.5152 38.8368L22.7152 41.2368C22.4931 41.3477 22.2483 41.4055 22 41.4055C21.7517 41.4055 21.5069 41.3477 21.2848 41.2368L16.4848 38.8368C16.2191 38.704 15.9956 38.4998 15.8393 38.2472C15.683 37.9946 15.6002 37.7034 15.6 37.4064V31C15.6002 30.7029 15.683 30.4117 15.8393 30.1591C15.9956 29.9065 16.2191 29.7023 16.4848 29.5696L21.2848 27.1696C21.5069 27.0586 21.7517 27.0008 22 27.0008C22.2483 27.0008 22.4931 27.0586 22.7152 27.1696ZM18.3152 30.9504C18.12 30.8668 17.8996 30.8641 17.7025 30.943C17.5053 31.022 17.3476 31.176 17.264 31.3712C17.1804 31.5664 17.1778 31.7868 17.2567 31.9839C17.3356 32.181 17.4896 32.3388 17.6848 32.4224L21.2 33.9264V38.2C21.2 38.4121 21.2843 38.6156 21.4343 38.7656C21.5844 38.9157 21.7878 39 22 39C22.2122 39 22.4157 38.9157 22.5657 38.7656C22.7157 38.6156 22.8 38.4121 22.8 38.2V33.928L26.3152 32.4208C26.5072 32.3352 26.6578 32.1775 26.7344 31.9818C26.8111 31.786 26.8076 31.568 26.7248 31.3748C26.642 31.1816 26.4864 31.0288 26.2918 30.9494C26.0972 30.8699 25.8792 30.8703 25.6848 30.9504L22 32.5296L18.3152 30.9504Z" fill="white"/>
<defs>
<linearGradient id="paint0_linear_193_4767" x1="28" y1="0" x2="28" y2="56" gradientUnits="userSpaceOnUse">
<stop stop-color="#EDA811"/>
<stop offset="1" stop-color="#FFBA40"/>
</linearGradient>
</defs>
</svg>
