<svg width="56" height="56" viewBox="0 0 56 56" fill="none" xmlns="http://www.w3.org/2000/svg">
<rect width="56" height="56" rx="28" fill="url(#paint0_linear_193_4757)"/>
<path d="M23.0625 36.5624L27.8958 33.5416L23.0625 30.5208V36.5624ZM29.7083 22.3645H34.5416V20.552H29.7083V22.3645ZM17.625 40.7916C16.9604 40.7916 16.3917 40.5552 15.9188 40.0823C15.446 39.6094 15.2091 39.0403 15.2083 38.3749V28.7083C15.2083 28.0437 15.4451 27.4749 15.9188 27.0021C16.3925 26.5292 16.9612 26.2924 17.625 26.2916H32.125C32.7896 26.2916 33.3587 26.5284 33.8324 27.0021C34.306 27.4758 34.5425 28.0445 34.5416 28.7083V38.3749C34.5416 39.0395 34.3052 39.6086 33.8324 40.0823C33.3595 40.556 32.7904 40.7924 32.125 40.7916H17.625ZM36.3541 29.9166V28.7083C36.3541 27.943 36.1681 27.2381 35.7959 26.5937C35.4237 25.9492 34.9251 25.4458 34.3 25.0833H34.5416C35.5486 25.0833 36.4045 24.7308 37.1094 24.026C37.8142 23.3211 38.1666 22.4652 38.1666 21.4583C38.1666 20.4513 37.8142 19.5954 37.1094 18.8905C36.4045 18.1857 35.5486 17.8333 34.5416 17.8333H33.0312V19.6458H34.5416C35.0451 19.6458 35.4733 19.8222 35.8261 20.175C36.1789 20.5278 36.355 20.9556 36.3541 21.4583C36.3533 21.9609 36.1773 22.3891 35.8261 22.7427C35.4749 23.0963 35.0467 23.2724 34.5416 23.2708H33.0312V25.0833C32.8701 25.0833 32.7191 24.9826 32.5781 24.7812C32.4371 24.5798 32.2861 24.4791 32.125 24.4791H31.2187V23.2708H29.7083C29.2048 23.2708 28.7771 23.0947 28.4251 22.7427C28.073 22.3907 27.8966 21.9625 27.8958 21.4583C27.895 20.954 28.0714 20.5262 28.4251 20.175C28.7787 19.8238 29.2065 19.6474 29.7083 19.6458H31.2187V17.8333H29.7083C28.7014 17.8333 27.8455 18.1857 27.1406 18.8905C26.4357 19.5954 26.0833 20.4513 26.0833 21.4583C26.0833 22.1027 26.2344 22.6819 26.5364 23.1958C26.8385 23.7098 27.2312 24.1375 27.7146 24.4791H22.4583V16.6249C22.4583 15.9603 22.6951 15.3916 23.1688 14.9188C23.6425 14.4459 24.2112 14.2091 24.875 14.2083H39.375C40.0396 14.2083 40.6087 14.4451 41.0824 14.9188C41.556 15.3924 41.7925 15.9611 41.7916 16.6249V27.4999C41.7916 28.1645 41.5552 28.7336 41.0824 29.2073C40.6095 29.681 40.0404 29.9174 39.375 29.9166H36.3541Z" fill="white"/>
<defs>
<linearGradient id="paint0_linear_193_4757" x1="28" y1="0" x2="28" y2="56" gradientUnits="userSpaceOnUse">
<stop stop-color="#EDA811"/>
<stop offset="1" stop-color="#FFBA40"/>
</linearGradient>
</defs>
</svg>
