<svg width="1030" height="317" viewBox="0 0 1030 317" fill="none" xmlns="http://www.w3.org/2000/svg">
<path d="M0.85498 195.649V75.3565C0.85498 61.3921 4.73255 55.6713 15.0188 48.8605C29.4051 39.335 50.7277 49.0237 59.3058 54.011L153.864 109.07C142.759 128.554 119.951 168.319 117.757 168.918C115.562 169.516 112.57 165.127 112.57 165.127L83.0452 130.017C83.0452 130.017 77.0605 121.439 70.2778 122.237C63.4951 123.035 59.3058 130.017 59.3058 130.017C43.945 155.685 8.55026 207.423 7.63767 207.02C0.85498 204.028 1.25396 199.44 0.85498 195.649Z" fill="url(#paint0_linear_318_828)"/>
<path d="M131.521 184.278L172.417 121.439L193.763 133.644C207.328 141.624 208.126 154.155 205.932 162.933C202.899 175.062 185.184 185.675 185.184 185.675L43.147 264.474C39.6892 266.402 29.821 269.102 18.0112 264.474C6.20133 259.846 1.65294 248.581 0.85498 243.527V224.177C3.11588 225.706 7.0392 227.767 13.4229 227.767C19.8066 227.767 24.1954 220.785 24.1954 220.785L71.6742 149.966L104.989 188.867C104.989 188.867 114.964 201.235 120.549 196.284C126.135 191.333 131.521 184.278 131.521 184.278Z" fill="url(#paint1_linear_318_828)"/>
<path d="M131.519 184.279L172.415 121.439L180.395 126.064L155.857 163.568C155.857 163.568 142.835 184.311 131.519 198.08C125.795 205.046 118.952 211.845 111.969 208.254C104.987 204.663 96.8081 193.691 96.8081 193.691L65.6875 158.98L71.6722 149.966L104.987 188.867C104.987 188.867 114.962 201.235 120.547 196.284C126.133 191.333 131.519 184.279 131.519 184.279Z" fill="url(#paint2_linear_318_828)"/>
<path d="M192.765 86.9632L181.394 105.28C188.309 108.272 207.616 110.41 218.1 90.3183C228.075 71.2035 217.639 52.5131 205.532 45.4692C194.56 39.0854 177.466 39.0922 165.434 50.8191C149.675 66.1799 157.787 84.8655 162.841 95.1061L175.409 77.3877C173.148 75.7918 166.232 72.1646 165.434 68.9728C164.636 65.7809 167.895 64.052 169.624 63.5865L191.368 55.2079C191.368 55.2079 196.555 52.9228 200.146 55.2079C202.34 56.6043 203.537 62.8249 203.537 62.8249L208.923 81.9397C209.322 83.9346 211.198 88.483 206.729 91.5152C204.535 93.0043 199.547 90.3183 199.547 90.3183L192.765 86.9632Z" fill="url(#paint3_linear_318_828)"/>
<path d="M283.192 209.74V98.6888H327.005C335.428 98.6888 342.604 100.297 348.532 103.515C354.461 106.696 358.979 111.124 362.088 116.8C365.233 122.439 366.806 128.946 366.806 136.32C366.806 143.695 365.215 150.202 362.034 155.841C358.853 161.48 354.244 165.873 348.207 169.018C342.206 172.163 334.94 173.735 326.409 173.735H298.483V154.919H322.613C327.132 154.919 330.855 154.142 333.783 152.588C336.747 150.997 338.953 148.81 340.399 146.027C341.881 143.207 342.622 139.971 342.622 136.32C342.622 132.633 341.881 129.416 340.399 126.668C338.953 123.885 336.747 121.734 333.783 120.216C330.819 118.661 327.059 117.884 322.505 117.884H306.671V209.74H283.192ZM404.722 98.6888V209.74H381.622V98.6888H404.722ZM446.976 211.312C441.662 211.312 436.927 210.391 432.769 208.547C428.612 206.667 425.323 203.902 422.901 200.251C420.515 196.564 419.322 191.973 419.322 186.478C419.322 181.851 420.171 177.965 421.87 174.82C423.569 171.675 425.883 169.144 428.811 167.228C431.739 165.312 435.065 163.866 438.788 162.89C442.548 161.914 446.488 161.227 450.609 160.83C455.453 160.324 459.357 159.854 462.322 159.42C465.286 158.95 467.437 158.263 468.774 157.359C470.112 156.456 470.781 155.118 470.781 153.347V153.021C470.781 149.587 469.696 146.93 467.527 145.05C465.394 143.171 462.358 142.231 458.418 142.231C454.26 142.231 450.953 143.153 448.495 144.996C446.036 146.804 444.41 149.081 443.614 151.829L422.25 150.093C423.334 145.032 425.467 140.658 428.648 136.971C431.83 133.248 435.933 130.392 440.957 128.404C446.018 126.379 451.874 125.367 458.526 125.367C463.153 125.367 467.581 125.909 471.811 126.994C476.077 128.078 479.854 129.759 483.144 132.037C486.47 134.314 489.09 137.242 491.006 140.821C492.922 144.364 493.88 148.611 493.88 153.564V209.74H471.974V198.19H471.323C469.985 200.793 468.196 203.088 465.955 205.077C463.713 207.029 461.02 208.565 457.875 209.686C454.73 210.77 451.097 211.312 446.976 211.312ZM453.592 195.371C456.99 195.371 459.99 194.702 462.593 193.364C465.196 191.991 467.238 190.147 468.72 187.833C470.202 185.52 470.943 182.899 470.943 179.971V171.132C470.22 171.602 469.226 172.036 467.961 172.434C466.732 172.795 465.34 173.139 463.786 173.464C462.231 173.753 460.677 174.024 459.122 174.277C457.568 174.494 456.158 174.693 454.893 174.874C452.182 175.271 449.814 175.904 447.79 176.772C445.765 177.639 444.193 178.814 443.072 180.296C441.951 181.742 441.391 183.55 441.391 185.719C441.391 188.864 442.53 191.268 444.807 192.93C447.121 194.557 450.049 195.371 453.592 195.371ZM523.08 240.973C520.152 240.973 517.404 240.738 514.838 240.268C512.307 239.834 510.211 239.274 508.548 238.587L513.753 221.344C516.465 222.175 518.905 222.627 521.074 222.7C523.279 222.772 525.177 222.266 526.767 221.181C528.394 220.097 529.713 218.253 530.726 215.65L532.081 212.126L502.204 126.452H526.496L543.739 187.617H544.607L562.013 126.452H586.468L554.096 218.741C552.542 223.224 550.427 227.128 547.752 230.454C545.113 233.816 541.769 236.4 537.72 238.208C533.672 240.051 528.792 240.973 523.08 240.973ZM615.966 98.6888V209.74H602.518V98.6888H615.966ZM653.991 159.637V209.74H641.194V126.452H653.557V139.465H654.641C656.594 135.236 659.558 131.838 663.534 129.271C667.511 126.668 672.644 125.367 678.934 125.367C684.573 125.367 689.508 126.524 693.737 128.837C697.967 131.115 701.256 134.585 703.606 139.248C705.956 143.876 707.131 149.732 707.131 156.817V209.74H694.334V157.685C694.334 151.142 692.635 146.045 689.237 142.393C685.838 138.706 681.175 136.863 675.247 136.863C671.162 136.863 667.511 137.748 664.293 139.52C661.112 141.291 658.6 143.876 656.756 147.274C654.913 150.672 653.991 154.793 653.991 159.637ZM795.638 126.452L764.839 209.74H751.825L721.025 126.452H734.907L757.898 192.822H758.766L781.757 126.452H795.638ZM844.467 211.475C836.442 211.475 829.519 209.704 823.699 206.161C817.915 202.582 813.451 197.594 810.306 191.195C807.197 184.761 805.642 177.278 805.642 168.746C805.642 160.215 807.197 152.696 810.306 146.189C813.451 139.646 817.825 134.549 823.428 130.898C829.067 127.211 835.646 125.367 843.166 125.367C847.503 125.367 851.787 126.09 856.017 127.536C860.246 128.982 864.096 131.332 867.566 134.585C871.037 137.803 873.802 142.068 875.863 147.382C877.923 152.696 878.954 159.239 878.954 167.011V172.434H814.752V161.372H865.94C865.94 156.673 865 152.479 863.12 148.792C861.276 145.105 858.638 142.195 855.203 140.062C851.805 137.929 847.793 136.863 843.166 136.863C838.068 136.863 833.658 138.128 829.935 140.658C826.248 143.153 823.41 146.406 821.422 150.419C819.433 154.431 818.439 158.733 818.439 163.324V170.699C818.439 176.989 819.524 182.321 821.693 186.695C823.898 191.033 826.953 194.34 830.857 196.618C834.761 198.859 839.298 199.98 844.467 199.98C847.829 199.98 850.865 199.51 853.577 198.57C856.324 197.594 858.692 196.148 860.68 194.232C862.668 192.28 864.205 189.858 865.289 186.966L877.652 190.436C876.351 194.63 874.164 198.317 871.091 201.498C868.018 204.643 864.223 207.101 859.704 208.872C855.185 210.608 850.106 211.475 844.467 211.475ZM957.416 145.105L945.92 148.358C945.197 146.442 944.131 144.581 942.721 142.773C941.348 140.929 939.468 139.411 937.082 138.218C934.696 137.025 931.641 136.429 927.918 136.429C922.821 136.429 918.573 137.604 915.175 139.953C911.813 142.267 910.132 145.213 910.132 148.792C910.132 151.973 911.289 154.486 913.603 156.329C915.916 158.173 919.531 159.709 924.448 160.938L936.811 163.975C944.258 165.782 949.807 168.548 953.458 172.271C957.109 175.958 958.934 180.712 958.934 186.532C958.934 191.304 957.561 195.569 954.813 199.329C952.102 203.088 948.306 206.053 943.426 208.222C938.546 210.391 932.87 211.475 926.4 211.475C917.905 211.475 910.874 209.632 905.306 205.944C899.739 202.257 896.215 196.871 894.733 189.785L906.879 186.749C908.036 191.231 910.223 194.593 913.44 196.835C916.694 199.076 920.941 200.197 926.183 200.197C932.147 200.197 936.883 198.931 940.39 196.401C943.932 193.834 945.704 190.762 945.704 187.183C945.704 184.291 944.691 181.869 942.667 179.917C940.643 177.928 937.534 176.446 933.34 175.47L919.459 172.217C911.831 170.409 906.228 167.608 902.65 163.812C899.107 159.98 897.336 155.19 897.336 149.443C897.336 144.743 898.655 140.586 901.294 136.971C903.969 133.356 907.602 130.518 912.193 128.458C916.82 126.397 922.062 125.367 927.918 125.367C936.16 125.367 942.631 127.175 947.33 130.79C952.066 134.404 955.428 139.176 957.416 145.105ZM1014.42 126.452V137.296H971.257V126.452H1014.42ZM983.837 106.497H996.634V185.881C996.634 189.496 997.158 192.207 998.206 194.015C999.291 195.786 1000.66 196.979 1002.33 197.594C1004.03 198.172 1005.82 198.461 1007.7 198.461C1009.11 198.461 1010.26 198.389 1011.17 198.244C1012.07 198.064 1012.79 197.919 1013.33 197.811L1015.94 209.306C1015.07 209.632 1013.86 209.957 1012.3 210.282C1010.75 210.644 1008.78 210.824 1006.39 210.824C1002.78 210.824 999.236 210.047 995.766 208.493C992.332 206.938 989.476 204.571 987.199 201.389C984.957 198.208 983.837 194.196 983.837 189.352V106.497Z" fill="white"/>
<defs>
<linearGradient id="paint0_linear_318_828" x1="90.4263" y1="224.213" x2="35.1674" y2="83.7714" gradientUnits="userSpaceOnUse">
<stop stop-color="#0B4E5C"/>
<stop offset="0.471154" stop-color="#0B4E5C"/>
<stop offset="1" stop-color="#009DBF"/>
</linearGradient>
<linearGradient id="paint1_linear_318_828" x1="90.4263" y1="224.213" x2="35.1674" y2="83.7714" gradientUnits="userSpaceOnUse">
<stop stop-color="#0B4E5C"/>
<stop offset="0.471154" stop-color="#0B4E5C"/>
<stop offset="1" stop-color="#009DBF"/>
</linearGradient>
<linearGradient id="paint2_linear_318_828" x1="123.739" y1="201.87" x2="123.739" y2="140.028" gradientUnits="userSpaceOnUse">
<stop stop-color="#0A4754"/>
<stop offset="1" stop-color="#21A7C4"/>
</linearGradient>
<linearGradient id="paint3_linear_318_828" x1="196.355" y1="65.0193" x2="188.775" y2="118.283" gradientUnits="userSpaceOnUse">
<stop stop-color="#23B2D1"/>
<stop offset="1" stop-color="#125B6B"/>
</linearGradient>
</defs>
</svg>
